# xmcd
#
# Track frame offsets: 
#        150
#        600
#        26702
#        39469
#        47083
#        63405
#        82789
#        101134
#        113529
#        132463
#
# Disc length: 2104 seconds
#
# Revision: 0
# Processed by: cddbd v1.5.2PL0 Copyright (c) Steve Scherf et al.
# Submitted via: ExactAudioCopy v0.95b4
#
DISCID=7808360a
DTITLE=King Biscuit Boy - Gooduns
DYEAR=1972
DGENRE=Blues
TTITLE0=Intro
TTITLE1=You Done Tore Your Playhouse Down Again
TTITLE2=Boom Boom
TTITLE3=Georgia Rag
TTITLE4=Barefoot Rock
TTITLE5=The Boogie Walk
TTITLE6=Ranky Tanky
TTITLE7=Twenty Nine Ways
TTITLE8=Bald Head Rhumba Boogie
TTITLE9=Lord Pity Us All
EXTD=
EXTT0=
EXTT1=
EXTT2=
EXTT3=
EXTT4=
EXTT5=
EXTT6=
EXTT7=
EXTT8=
EXTT9=
PLAYORDER=
